<?xml version="1.0" standalone="no"?>
<!DOCTYPE svg PUBLIC "-//W3C//DTD SVG 20010904//EN"
 "http://www.w3.org/TR/2001/REC-SVG-20010904/DTD/svg10.dtd">
<svg version="1.0" xmlns="http://www.w3.org/2000/svg"
 width="900.000000pt" height="900.000000pt" viewBox="0 0 900.000000 900.000000"
 preserveAspectRatio="xMidYMid meet">
<metadata>
Created by potrace 1.10, written by Peter Selinger 2001-2011
</metadata>
<g transform="translate(0.000000,900.000000) scale(0.100000,-0.100000)"
fill="#000000" stroke="none">
<path d="M4342 8784 c-112 -25 -211 -79 -300 -167 -91 -89 -51 -13 -682 -1292
-465 -943 -437 -890 -488 -937 -26 -24 -60 -49 -77 -55 -43 -17 -180 -43 -224
-43 -20 0 -52 -5 -71 -10 -19 -6 -71 -14 -115 -19 -44 -5 -114 -14 -155 -21
-101 -15 -242 -36 -375 -55 -60 -9 -153 -22 -205 -30 -52 -8 -142 -21 -200
-29 -192 -28 -324 -47 -420 -61 -52 -8 -142 -21 -200 -29 -58 -9 -157 -23
-220 -32 -63 -9 -142 -25 -175 -36 -205 -66 -367 -237 -421 -445 -18 -71 -18
-265 0 -336 30 -113 87 -209 186 -307 46 -46 568 -555 999 -974 130 -127 322
-316 427 -420 172 -173 192 -196 207 -245 21 -65 21 -99 3 -193 -8 -40 -22
-115 -30 -166 -9 -50 -23 -134 -32 -185 -8 -50 -21 -126 -29 -167 -7 -41 -21
-120 -30 -175 -9 -55 -23 -138 -31 -185 -28 -158 -42 -245 -59 -345 -9 -55
-23 -131 -31 -170 -8 -38 -14 -79 -14 -90 0 -11 -6 -51 -14 -90 -8 -38 -22
-115 -31 -170 -23 -142 -44 -258 -60 -345 -31 -157 -7 -305 73 -457 51 -97
217 -240 323 -279 121 -44 253 -55 369 -30 59 12 179 58 205 77 6 5 58 32 115
62 58 30 139 72 180 94 41 22 125 66 185 98 61 32 146 77 190 100 44 23 143
75 220 116 77 40 167 87 200 105 33 18 96 51 140 73 44 23 123 64 175 92 154
82 357 188 470 245 95 48 111 54 170 54 59 0 75 -5 180 -59 115 -58 275 -141
425 -221 44 -23 136 -72 205 -107 69 -36 148 -78 175 -93 28 -15 109 -58 180
-95 250 -130 311 -163 430 -225 66 -35 170 -90 230 -122 334 -177 375 -193
528 -205 258 -20 530 153 625 397 52 134 63 248 37 380 -16 85 -36 200 -60
345 -9 55 -23 134 -30 175 -8 41 -21 118 -30 170 -9 52 -22 131 -30 175 -7 44
-21 125 -30 180 -9 55 -23 132 -31 170 -8 39 -14 79 -14 90 0 11 -6 52 -14 90
-8 39 -22 115 -31 170 -9 55 -23 136 -30 180 -8 44 -21 123 -30 175 -9 52 -23
128 -31 168 -18 94 -18 128 3 193 15 49 35 72 197 235 100 99 285 281 412 405
127 123 392 382 590 575 197 193 378 367 401 388 100 89 200 245 217 339 4 23
13 37 21 37 12 0 15 24 15 135 0 111 -3 135 -15 135 -8 0 -17 14 -21 38 -18
96 -109 241 -201 319 -102 86 -214 131 -388 157 -55 8 -134 20 -175 26 -41 7
-106 15 -145 20 -38 4 -97 12 -130 18 -33 6 -112 18 -175 27 -63 9 -158 22
-210 30 -52 8 -144 21 -205 30 -60 9 -150 22 -200 30 -49 7 -144 21 -210 30
-162 22 -439 63 -615 91 -192 30 -212 51 -367 364 -186 378 -481 975 -690
1400 -108 217 -210 418 -229 445 -37 57 -121 143 -174 178 -141 94 -334 128
-508 91z m271 -373 c66 -32 107 -80 159 -183 44 -89 254 -514 648 -1313 364
-740 360 -732 472 -820 134 -106 201 -127 583 -180 66 -9 161 -23 210 -30 50
-8 142 -21 205 -30 63 -9 158 -23 210 -30 52 -8 111 -16 130 -18 19 -3 69 -9
110 -16 105 -16 246 -37 373 -56 59 -8 155 -22 215 -30 395 -57 503 -76 545
-97 96 -48 164 -166 155 -271 -6 -65 -40 -139 -87 -186 -29 -29 -493 -482
-820 -801 -31 -30 -140 -136 -241 -235 -647 -629 -634 -614 -690 -820 -24 -85
-25 -173 -5 -285 21 -114 40 -224 60 -345 9 -55 23 -134 30 -175 8 -41 21
-118 30 -170 9 -52 22 -131 30 -175 7 -44 21 -125 30 -180 9 -55 23 -131 31
-170 8 -38 14 -79 14 -90 0 -11 6 -51 14 -90 8 -38 22 -115 31 -170 9 -55 23
-136 30 -180 8 -44 21 -123 30 -175 9 -52 23 -128 31 -168 18 -93 18 -118 -3
-183 -25 -78 -109 -160 -185 -183 -91 -26 -140 -20 -238 28 -59 30 -291 151
-410 215 -52 28 -131 69 -175 92 -44 22 -109 56 -145 76 -74 40 -294 156 -420
221 -47 24 -125 66 -175 92 -49 27 -126 67 -170 90 -44 22 -134 70 -200 105
-317 169 -389 195 -535 195 -141 0 -212 -25 -475 -165 -49 -26 -136 -72 -192
-101 -263 -138 -323 -170 -393 -207 -41 -22 -124 -65 -185 -97 -60 -31 -155
-81 -210 -110 -55 -29 -149 -79 -210 -110 -60 -32 -150 -79 -200 -105 -403
-215 -447 -235 -512 -235 -138 0 -267 112 -289 250 -4 24 0 78 10 133 10 50
23 126 31 167 13 70 19 108 60 350 38 223 47 279 60 350 7 41 21 120 30 175 9
55 23 136 30 180 8 44 21 123 30 175 9 52 22 129 30 170 7 41 21 120 30 175
20 121 39 231 60 345 20 112 19 200 -5 285 -48 176 -83 226 -316 455 -216 212
-519 508 -614 600 -212 205 -791 771 -822 805 -50 52 -80 117 -86 182 -9 105
59 223 155 271 35 18 100 30 343 67 52 7 129 19 170 25 41 7 107 16 145 20 39
4 104 13 145 20 190 30 264 41 785 115 61 9 153 22 205 30 52 8 145 22 205 30
258 37 323 49 377 66 111 37 213 105 291 197 64 76 -25 -100 779 1532 338 686
304 623 370 674 78 59 201 70 291 27z"/>
</g>
</svg>
